<mxfile host="app.diagrams.net" modified="2023-04-10T14:12:07.321Z" agent="Mozilla/5.0 (Windows NT 10.0; Win64; x64) AppleWebKit/537.36 (KHTML, like Gecko) Chrome/112.0.0.0 Safari/537.36 Edg/112.0.1722.34" etag="-h5XITSncrST8_fNrTz3" version="21.1.5" type="github">
  <diagram name="第 1 页" id="63fAddfX-q-rUXntFSP-">
    <mxGraphModel dx="993" dy="573" grid="1" gridSize="10" guides="1" tooltips="1" connect="1" arrows="1" fold="1" page="1" pageScale="1" pageWidth="827" pageHeight="1169" math="0" shadow="0">
      <root>
        <mxCell id="0" />
        <mxCell id="1" parent="0" />
        <mxCell id="E2S6l2YIMgvaNyh9KJD0-1" value="&lt;p style=&quot;margin-left:21.2500pt;mso-para-margin-left:0.0000gd;text-indent:-21.2500pt;&lt;br/&gt;mso-char-indent-count:0.0000;mso-list:l0 level1 lfo1;&quot; class=&quot;MsoNormal&quot;&gt;&lt;span style=&quot;mso-spacerun:&#39;yes&#39;;font-family:宋体;mso-ascii-font-family:Calibri;&lt;br/&gt;mso-hansi-font-family:Calibri;mso-bidi-font-family:&#39;Times New Roman&#39;;font-size:10.5000pt;&lt;br/&gt;mso-font-kerning:1.0000pt;&quot;&gt;家庭信息&lt;/span&gt;&lt;/p&gt;" style="rounded=0;whiteSpace=wrap;html=1;" vertex="1" parent="1">
          <mxGeometry x="270" y="215" width="120" height="60" as="geometry" />
        </mxCell>
        <mxCell id="E2S6l2YIMgvaNyh9KJD0-2" value="更新时间" style="ellipse;whiteSpace=wrap;html=1;" vertex="1" parent="1">
          <mxGeometry x="130" y="90" width="100" height="50" as="geometry" />
        </mxCell>
        <mxCell id="E2S6l2YIMgvaNyh9KJD0-3" value="户籍地址" style="ellipse;whiteSpace=wrap;html=1;" vertex="1" parent="1">
          <mxGeometry x="90" y="220" width="100" height="50" as="geometry" />
        </mxCell>
        <mxCell id="E2S6l2YIMgvaNyh9KJD0-4" value="母亲联系方式" style="ellipse;whiteSpace=wrap;html=1;" vertex="1" parent="1">
          <mxGeometry x="140" y="340" width="100" height="50" as="geometry" />
        </mxCell>
        <mxCell id="E2S6l2YIMgvaNyh9KJD0-5" value="母亲身份证号码" style="ellipse;whiteSpace=wrap;html=1;" vertex="1" parent="1">
          <mxGeometry x="260" y="340" width="100" height="50" as="geometry" />
        </mxCell>
        <mxCell id="E2S6l2YIMgvaNyh9KJD0-6" value="家庭id" style="ellipse;whiteSpace=wrap;html=1;" vertex="1" parent="1">
          <mxGeometry x="240" y="90" width="100" height="50" as="geometry" />
        </mxCell>
        <mxCell id="E2S6l2YIMgvaNyh9KJD0-7" value="儿童id" style="ellipse;whiteSpace=wrap;html=1;" vertex="1" parent="1">
          <mxGeometry x="360" y="80" width="100" height="50" as="geometry" />
        </mxCell>
        <mxCell id="E2S6l2YIMgvaNyh9KJD0-8" value="父亲姓名" style="ellipse;whiteSpace=wrap;html=1;" vertex="1" parent="1">
          <mxGeometry x="450" y="120" width="100" height="50" as="geometry" />
        </mxCell>
        <mxCell id="E2S6l2YIMgvaNyh9KJD0-9" value="父亲身份证号码" style="ellipse;whiteSpace=wrap;html=1;" vertex="1" parent="1">
          <mxGeometry x="450" y="200" width="100" height="50" as="geometry" />
        </mxCell>
        <mxCell id="E2S6l2YIMgvaNyh9KJD0-10" value="父亲联系方式" style="ellipse;whiteSpace=wrap;html=1;" vertex="1" parent="1">
          <mxGeometry x="450" y="270" width="100" height="50" as="geometry" />
        </mxCell>
        <mxCell id="E2S6l2YIMgvaNyh9KJD0-11" value="母亲姓名" style="ellipse;whiteSpace=wrap;html=1;" vertex="1" parent="1">
          <mxGeometry x="400" y="330" width="100" height="50" as="geometry" />
        </mxCell>
        <mxCell id="E2S6l2YIMgvaNyh9KJD0-12" value="创建时间" style="ellipse;whiteSpace=wrap;html=1;" vertex="1" parent="1">
          <mxGeometry x="100" y="150" width="100" height="50" as="geometry" />
        </mxCell>
        <mxCell id="E2S6l2YIMgvaNyh9KJD0-13" value="现住址" style="ellipse;whiteSpace=wrap;html=1;" vertex="1" parent="1">
          <mxGeometry x="90" y="290" width="100" height="50" as="geometry" />
        </mxCell>
        <mxCell id="E2S6l2YIMgvaNyh9KJD0-14" value="" style="endArrow=none;html=1;rounded=0;entryX=0;entryY=1;entryDx=0;entryDy=0;exitX=1;exitY=0.5;exitDx=0;exitDy=0;" edge="1" parent="1" source="E2S6l2YIMgvaNyh9KJD0-13" target="E2S6l2YIMgvaNyh9KJD0-1">
          <mxGeometry width="50" height="50" relative="1" as="geometry">
            <mxPoint x="50" y="510" as="sourcePoint" />
            <mxPoint x="100" y="460" as="targetPoint" />
          </mxGeometry>
        </mxCell>
        <mxCell id="E2S6l2YIMgvaNyh9KJD0-15" value="" style="endArrow=none;html=1;rounded=0;exitX=1;exitY=0;exitDx=0;exitDy=0;" edge="1" parent="1" source="E2S6l2YIMgvaNyh9KJD0-4" target="E2S6l2YIMgvaNyh9KJD0-1">
          <mxGeometry width="50" height="50" relative="1" as="geometry">
            <mxPoint x="60" y="520" as="sourcePoint" />
            <mxPoint x="110" y="470" as="targetPoint" />
          </mxGeometry>
        </mxCell>
        <mxCell id="E2S6l2YIMgvaNyh9KJD0-16" value="" style="endArrow=none;html=1;rounded=0;entryX=0.5;entryY=1;entryDx=0;entryDy=0;exitX=0.5;exitY=0;exitDx=0;exitDy=0;" edge="1" parent="1" source="E2S6l2YIMgvaNyh9KJD0-5" target="E2S6l2YIMgvaNyh9KJD0-1">
          <mxGeometry width="50" height="50" relative="1" as="geometry">
            <mxPoint x="70" y="530" as="sourcePoint" />
            <mxPoint x="120" y="480" as="targetPoint" />
          </mxGeometry>
        </mxCell>
        <mxCell id="E2S6l2YIMgvaNyh9KJD0-17" value="" style="endArrow=none;html=1;rounded=0;entryX=0.75;entryY=1;entryDx=0;entryDy=0;exitX=0.5;exitY=0;exitDx=0;exitDy=0;" edge="1" parent="1" source="E2S6l2YIMgvaNyh9KJD0-11" target="E2S6l2YIMgvaNyh9KJD0-1">
          <mxGeometry width="50" height="50" relative="1" as="geometry">
            <mxPoint x="80" y="540" as="sourcePoint" />
            <mxPoint x="130" y="490" as="targetPoint" />
          </mxGeometry>
        </mxCell>
        <mxCell id="E2S6l2YIMgvaNyh9KJD0-18" value="" style="endArrow=none;html=1;rounded=0;entryX=1;entryY=0.75;entryDx=0;entryDy=0;exitX=0;exitY=0;exitDx=0;exitDy=0;" edge="1" parent="1" source="E2S6l2YIMgvaNyh9KJD0-10" target="E2S6l2YIMgvaNyh9KJD0-1">
          <mxGeometry width="50" height="50" relative="1" as="geometry">
            <mxPoint x="90" y="550" as="sourcePoint" />
            <mxPoint x="140" y="500" as="targetPoint" />
          </mxGeometry>
        </mxCell>
        <mxCell id="E2S6l2YIMgvaNyh9KJD0-19" value="" style="endArrow=none;html=1;rounded=0;entryX=1;entryY=0.5;entryDx=0;entryDy=0;exitX=0.002;exitY=0.676;exitDx=0;exitDy=0;exitPerimeter=0;" edge="1" parent="1" source="E2S6l2YIMgvaNyh9KJD0-9" target="E2S6l2YIMgvaNyh9KJD0-1">
          <mxGeometry width="50" height="50" relative="1" as="geometry">
            <mxPoint x="100" y="560" as="sourcePoint" />
            <mxPoint x="150" y="510" as="targetPoint" />
          </mxGeometry>
        </mxCell>
        <mxCell id="E2S6l2YIMgvaNyh9KJD0-20" value="" style="endArrow=none;html=1;rounded=0;entryX=-0.014;entryY=0.676;entryDx=0;entryDy=0;entryPerimeter=0;exitX=1;exitY=0;exitDx=0;exitDy=0;" edge="1" parent="1" source="E2S6l2YIMgvaNyh9KJD0-1" target="E2S6l2YIMgvaNyh9KJD0-8">
          <mxGeometry width="50" height="50" relative="1" as="geometry">
            <mxPoint x="110" y="570" as="sourcePoint" />
            <mxPoint x="160" y="520" as="targetPoint" />
          </mxGeometry>
        </mxCell>
        <mxCell id="E2S6l2YIMgvaNyh9KJD0-21" value="" style="endArrow=none;html=1;rounded=0;entryX=0;entryY=1;entryDx=0;entryDy=0;exitX=0.75;exitY=0;exitDx=0;exitDy=0;" edge="1" parent="1" source="E2S6l2YIMgvaNyh9KJD0-1" target="E2S6l2YIMgvaNyh9KJD0-7">
          <mxGeometry width="50" height="50" relative="1" as="geometry">
            <mxPoint x="120" y="580" as="sourcePoint" />
            <mxPoint x="170" y="530" as="targetPoint" />
          </mxGeometry>
        </mxCell>
        <mxCell id="E2S6l2YIMgvaNyh9KJD0-22" value="" style="endArrow=none;html=1;rounded=0;entryX=0.5;entryY=1;entryDx=0;entryDy=0;exitX=0.25;exitY=0;exitDx=0;exitDy=0;" edge="1" parent="1" source="E2S6l2YIMgvaNyh9KJD0-1" target="E2S6l2YIMgvaNyh9KJD0-6">
          <mxGeometry width="50" height="50" relative="1" as="geometry">
            <mxPoint x="130" y="590" as="sourcePoint" />
            <mxPoint x="180" y="540" as="targetPoint" />
          </mxGeometry>
        </mxCell>
        <mxCell id="E2S6l2YIMgvaNyh9KJD0-23" value="" style="endArrow=none;html=1;rounded=0;entryX=1;entryY=1;entryDx=0;entryDy=0;exitX=0;exitY=0;exitDx=0;exitDy=0;" edge="1" parent="1" source="E2S6l2YIMgvaNyh9KJD0-1" target="E2S6l2YIMgvaNyh9KJD0-2">
          <mxGeometry width="50" height="50" relative="1" as="geometry">
            <mxPoint x="140" y="600" as="sourcePoint" />
            <mxPoint x="190" y="550" as="targetPoint" />
          </mxGeometry>
        </mxCell>
        <mxCell id="E2S6l2YIMgvaNyh9KJD0-24" value="" style="endArrow=none;html=1;rounded=0;entryX=1;entryY=0.5;entryDx=0;entryDy=0;exitX=0;exitY=0.5;exitDx=0;exitDy=0;" edge="1" parent="1" source="E2S6l2YIMgvaNyh9KJD0-1" target="E2S6l2YIMgvaNyh9KJD0-12">
          <mxGeometry width="50" height="50" relative="1" as="geometry">
            <mxPoint x="150" y="610" as="sourcePoint" />
            <mxPoint x="200" y="560" as="targetPoint" />
          </mxGeometry>
        </mxCell>
        <mxCell id="E2S6l2YIMgvaNyh9KJD0-25" value="" style="endArrow=none;html=1;rounded=0;entryX=1;entryY=0.5;entryDx=0;entryDy=0;exitX=0;exitY=0.75;exitDx=0;exitDy=0;" edge="1" parent="1" source="E2S6l2YIMgvaNyh9KJD0-1" target="E2S6l2YIMgvaNyh9KJD0-3">
          <mxGeometry width="50" height="50" relative="1" as="geometry">
            <mxPoint x="160" y="620" as="sourcePoint" />
            <mxPoint x="210" y="570" as="targetPoint" />
          </mxGeometry>
        </mxCell>
      </root>
    </mxGraphModel>
  </diagram>
</mxfile>
